#!OML:ASF H:\Terrain\Patient Classification 1\Terrain2\Thursday\justin.ASF
:FULLY-SPECIFIED
:DEGREES
4012
root 29.9906 18.07 4.95849 0.01079 174.176 2.2791
lowerback 7.01403 1.42338 0.406265
upperback 2.85404 2.16753 2.02759
thorax -1.05126 1.16749 1.68678
lowerneck -13.6963 -2.10964 -6.87604
upperneck 39.0545 4.16508 -0.147217
head 16.2454 2.24891 2.33842
rclavicle -3.52843e-015 1.98785e-015
rhumerus -30.4424 -2.64083 -83.3184
rradius 32.3023
rwrist -7.64477
rhand -20.4444 8.68053
rfingers 7.12502
rthumb 5.9108 -21.217
lclavicle -3.52843e-015 1.98785e-015
lhumerus -36.7868 5.2779 85.4415
lradius 30.7668
lwrist 2.81177
lhand -16.7161 22.7115
lfingers 7.12502
lthumb 9.5093 52.4769
rfemur -7.29037 -3.36389 18.797
rtibia 61.485
rfoot 10.1894 1.12152
rtoes 13.794
lfemur -14.3861 6.3798 -20.0825
ltibia 18.6526
lfoot -2.31505 -9.06311
ltoes 7.73793
4013
root 29.9778 18.0856 4.88349 -0.0332294 174.162 2.23381
lowerback 6.99255 1.34207 0.333984
upperback 2.88019 2.05511 2.03261
thorax -1.01195 1.11133 1.74248
lowerneck -13.6277 -2.04331 -6.69346
upperneck 38.9468 4.29443 -0.441222
head 16.1813 2.28855 2.19315
rclavicle -2.03754e-015 3.97569e-016
rhumerus -30.1759 -2.90474 -83.2573
rradius 32.3774
rwrist -7.58224
rhand -21.002 8.23569
rfingers 7.12502
rthumb 5.37239 -21.6762
lclavicle -2.03754e-015 3.97569e-016
lhumerus -36.547 5.11827 85.3764
lradius 31.0907
lwrist 2.96487
lhand -16.8134 22.506
lfingers 7.12502
lthumb 9.41541 52.2756
rfemur -8.26737 -3.32818 18.6782
rtibia 62.8983
rfoot 8.97505 0.508858
rtoes 11.967
lfemur -13.8997 6.18196 -20.1758
ltibia 18.4397
lfoot -2.30639 -8.90278
ltoes 8.41502
4014
root 29.9751 18.0973 4.82204 0.111986 174.241 2.59651
lowerback 6.9392 1.26126 0.597881
upperback 2.83345 1.96874 2.14539
thorax -1.02355 1.07028 1.71794
lowerneck -13.6819 -2.0231 -6.65614
upperneck 39.0782 4.35826 -0.431261
head 16.2615 2.32402 2.20995
rclavicle -1.73937e-015 -1.74931e-014
rhumerus -29.9394 -3.46903 -83.0867
rradius 32.4039
rwrist -7.14617
rhand -21.4064 7.91735
rfingers 7.12502
rthumb 4.98197 -22.0041
lclavicle -1.73937e-015 -1.74931e-014
lhumerus -36.2128 4.68063 85.3873
lradius 31.3658
lwrist 3.53017
lhand -16.8219 22.4675
lfingers 7.12502
lthumb 9.40714 52.2376
rfemur -9.52399 -3.48061 19.1592
rtibia 64.2412
rfoot 7.69278 -0.12155
rtoes 7.75971
lfemur -13.601 6.31052 -19.8326
ltibia 18.0536
lfoot -1.95455 -8.99484
ltoes 9.19926
4015
root 29.9779 18.1014 4.76611 0.189385 174.399 2.4238
lowerback 6.99676 1.15439 0.256872
upperback 2.7145 1.79627 2.1377
thorax -1.18301 0.978437 1.91178
lowerneck -13.5407 -1.93823 -6.72317
upperneck 39.0311 4.46287 -0.35571
head 16.1934 2.37316 2.26697
rclavicle -4.02539e-015 -1.23246e-014
rhumerus -29.8851 -3.96649 -82.9682
rradius 32.4371
rwrist -6.73646
rhand -21.2232 8.49123
rfingers 7.12502
rthumb 5.15888 -21.426
lclavicle -4.02539e-015 -1.23246e-014
lhumerus -36.1532 4.57856 85.231
lradius 31.8992
lwrist 3.7238
lhand -16.9498 22.5484
lfingers 7.12502
lthumb 9.28375 52.324
rfemur -10.8244 -3.72182 19.054
rtibia 65.5035
rfoot 6.25758 -1.0454
rtoes 5.24827
lfemur -13.3238 6.50765 -20.1085
ltibia 17.6521
lfoot -1.8923 -9.23212
ltoes 7.4645
4016
root 29.9722 18.1048 4.69559 0.025371 174.478 2.02287
lowerback 7.05137 1.06796 -0.170153
upperback 2.75608 1.64802 2.034
thorax -1.17385 0.901403 2.05622
lowerneck -13.4459 -1.85329 -6.65724
upperneck 38.9047 4.58576 -0.495029
head 16.1061 2.41453 2.20662
rclavicle 2.11706e-014 1.43125e-014
rhumerus -29.7409 -4.31933 -82.9621
rradius 32.5686
rwrist -6.61921
rhand -20.8845 9.15861
rfingers 7.12502
rthumb 5.48589 -20.7504
lclavicle 2.11706e-014 1.43125e-014
lhumerus -35.9131 4.69766 84.9808
lradius 32.361
lwrist 3.49712
lhand -17.0551 22.6664
lfingers 7.12502
lthumb 9.18215 52.4465
rfemur -11.6917 -3.96067 18.5345
rtibia 66.5178
rfoot 4.3601 -1.84925
rtoes 5.80678
lfemur -12.7396 6.35345 -20.5776
ltibia 17.3808
lfoot -2.03286 -9.11372
ltoes 6.88932
4017
root 29.9614 18.1197 4.62045 -0.138813 174.481 2.08916
lowerback 7.01713 0.976952 -0.0874392
upperback 2.95277 1.54654 2.07335
thorax -0.947449 0.856309 2.06177
lowerneck -13.735 -1.82611 -6.60783
upperneck 38.9462 4.67577 -0.647812
head 16.2037 2.41956 2.1528
rclavicle 4.96962e-016 -1.59028e-015
rhumerus -29.3383 -4.59228 -82.9263
rradius 32.867
rwrist -6.62423
rhand -20.5797 10.0589
rfingers 7.12502
rthumb 5.7801 -19.8422
lclavicle 4.96962e-016 -1.59028e-015
lhumerus -35.3248 4.85228 84.8325
lradius 32.6469
lwrist 3.44891
lhand -17.1833 22.9696
lfingers 7.12502
lthumb 9.05849 52.755
rfemur -12.3735 -4.13834 18.5252
rtibia 67.2398
rfoot 2.56995 -2.40504
rtoes 6.90824
lfemur -12.1159 5.89586 -20.4708
ltibia 17.221
lfoot -2.00852 -8.60987
ltoes 9.67707
4018
root 29.9572 18.1326 4.5566 -0.229719 174.501 2.1165
lowerback 7.02319 0.873887 -0.202064
upperback 3.09032 1.41417 2.14754
thorax -0.808417 0.793329 2.21481
lowerneck -14.112 -1.79557 -6.63752
upperneck 39.0987 4.77881 -0.672439
head 16.3751 2.43375 2.17804
rclavicle 1.90833e-014 -1.82882e-014
rhumerus -28.9076 -4.75605 -82.9058
rradius 33.0315
rwrist -6.68313
rhand -20.4623 10.7705
rfingers 7.12502
rthumb 5.89349 -19.1276
lclavicle 1.90833e-014 -1.82882e-014
lhumerus -34.8488 5.08548 84.6725
lradius 33.0335
lwrist 3.63621
lhand -17.0305 23.1026
lfingers 7.12502
lthumb 9.20592 52.8816
rfemur -13.1316 -4.29291 18.5692
rtibia 67.7525
rfoot 1.15465 -2.98341
rtoes 6.32311
lfemur -11.7465 5.63285 -20.4363
ltibia 17.185
lfoot -2.01044 -8.32608
ltoes 11.619
4019
root 29.959 18.1299 4.49399 -0.370776 174.648 1.95945
lowerback 7.12872 0.779252 -0.49296
upperback 3.1158 1.2703 2.11583
thorax -0.83958 0.71987 2.3556
lowerneck -14.1798 -1.73192 -6.53326
upperneck 39.1768 4.88731 -0.711692
head 16.4322 2.48735 2.16665
rclavicle -8.84592e-015 -5.96354e-015
rhumerus -28.761 -4.92074 -82.9928
rradius 33.1284
rwrist -7.04858
rhand -20.3642 9.58161
rfingers 7.12502
rthumb 5.98821 -20.3138
lclavicle -8.84592e-015 -5.96354e-015
lhumerus -34.5579 5.07807 84.4211
lradius 33.4264
lwrist 3.90642
lhand -16.7414 23.483
lfingers 7.12502
lthumb 9.48487 53.2496
rfemur -13.7463 -4.48146 18.4304
rtibia 68.0807
rfoot -0.310747 -3.65829
rtoes 5.99246
lfemur -11.4453 5.48589 -20.6065
ltibia 17.2756
lfoot -2.0829 -8.38069
ltoes 11.4251
4020
root 29.9628 18.1274 4.42545 -0.487822 174.983 1.80405
lowerback 7.22851 0.668469 -0.707636
upperback 3.03446 1.1013 2.05384
thorax -0.973346 0.632316 2.42373
lowerneck -13.9901 -1.68293 -6.33295
upperneck 39.2029 4.99942 -0.876353
head 16.4064 2.5585 2.07895
rclavicle 5.96354e-016 1.55052e-014
rhumerus -28.9482 -5.09886 -83.0504
rradius 33.4173
rwrist -7.40403
rhand -20.2466 8.01902
rfingers 7.12502
rthumb 6.10171 -21.8731
lclavicle 5.96354e-016 1.55052e-014
lhumerus -34.4995 4.72476 84.2536
lradius 33.8416
lwrist 4.35355
lhand -16.9737 23.7268
lfingers 7.12502
lthumb 9.26073 53.5034
rfemur -14.263 -4.71358 18.3162
rtibia 68.2483
rfoot -1.7483 -4.21498
rtoes 7.10675
lfemur -11.1989 5.29411 -20.7868
ltibia 17.4472
lfoot -2.29459 -8.6148
ltoes 9.53611
4021
root 29.9636 18.1285 4.35992 -0.499043 175.279 1.71118
lowerback 7.20825 0.56142 -0.858329
upperback 2.93908 0.939539 2.02107
thorax -1.05422 0.547898 2.48737
lowerneck -13.769 -1.67515 -6.08659
upperneck 39.2234 5.08391 -1.15918
head 16.3789 2.61098 1.92632
rclavicle 5.46658e-016 2.78299e-015
rhumerus -29.1081 -4.94312 -83.2341
rradius 33.7634
rwrist -8.31991
rhand -20.6518 7.88776
rfingers 7.12502
rthumb 5.7105 -22.0153
lclavicle 5.46658e-016 2.78299e-015
lhumerus -34.4867 4.41409 84.1539
lradius 34.3891
lwrist 4.72086
lhand -17.2412 23.5207
lfingers 7.12502
lthumb 9.00256 53.3086
rfemur -14.8705 -4.81818 18.2859
rtibia 68.2604
rfoot -3.07398 -4.53254
rtoes 8.96825
lfemur -11.1083 5.2808 -20.9405
ltibia 17.6891
lfoot -2.44139 -8.89191
ltoes 8.15899
4022
root 29.9619 18.1298 4.30008 -0.524598 175.412 1.71201
lowerback 7.14495 0.478671 -0.909925
upperback 2.97759 0.82715 2.01521
thorax -0.974318 0.491246 2.52038
lowerneck -13.6886 -1.64677 -5.99855
upperneck 39.1242 5.10533 -1.26583
head 16.3119 2.61763 1.86108
rclavicle 1.04362e-015 1.98785e-015
rhumerus -28.9908 -4.36 -83.665
rradius 34.0979
rwrist -10.3505
rhand -21.8708 10.0498
rfingers 7.12502
rthumb 4.53357 -19.8817
lclavicle 1.04362e-015 1.98785e-015
lhumerus -34.1683 4.48819 83.9455
lradius 34.9163
lwrist 4.61083
lhand -17.2978 24.1383
lfingers 7.12502
lthumb 8.948 53.9285
rfemur -15.4888 -4.76862 18.3316
rtibia 68.1209
rfoot -4.52436 -4.58283
rtoes 9.921
lfemur -11.0043 5.45401 -20.99
ltibia 17.9614
lfoot -2.60583 -9.11537
ltoes 8.0691
4023
root 29.9651 18.1312 4.23949 -0.636553 175.539 1.85288
lowerback 7.18399 0.395844 -0.898552
upperback 3.04052 0.727145 2.09359
thorax -0.926707 0.443872 2.60304
lowerneck -13.6424 -1.60849 -6.18523
upperneck 39.058 5.09087 -1.03779
head 16.2506 2.6109 1.98462
rclavicle -1.38652e-014 1.07344e-014
rhumerus -28.9428 -3.90396 -83.9004
rradius 34.4944
rwrist -11.8779
rhand -22.7707 11.6057
rfingers 7.12502
rthumb 3.66454 -18.3425
lclavicle -1.38652e-014 1.07344e-014
lhumerus -33.8415 4.74777 83.721
lradius 35.2972
lwrist 4.4909
lhand -17.3042 24.6798
lfingers 7.12502
lthumb 8.94184 54.4704
rfemur -15.9706 -4.69433 18.5935
rtibia 67.8214
rfoot -6.21239 -4.51662
rtoes 8.92036
lfemur -10.8198 5.68207 -20.8468
ltibia 18.2773
lfoot -2.84784 -9.42111
ltoes 7.37841
4024
root 29.9712 18.1268 4.17814 -0.716067 175.689 1.90414
lowerback 7.28024 0.329854 -1.01773
upperback 2.99942 0.632704 2.15353
thorax -1.01892 0.396737 2.73901
lowerneck -13.6388 -1.59863 -6.2521
upperneck 39.1459 5.09507 -0.892398
head 16.2874 2.62561 2.06468
rclavicle 3.8266e-015 1.07344e-014
rhumerus -29.0739 -3.77936 -83.9166
rradius 34.8062
rwrist -12.2166
rhand -22.9476 11.0813
rfingers 7.12502
rthumb 3.49367 -18.8698
lclavicle 3.8266e-015 1.07344e-014
lhumerus -33.7088 4.73671 83.5934
lradius 35.6983
lwrist 4.95549
lhand -17.2116 24.0318
lfingers 7.12502
lthumb 9.03112 53.8185
rfemur -16.4402 -4.6248 18.7902
rtibia 67.3762
rfoot -7.99304 -4.27011
rtoes 7.07742
lfemur -10.7346 5.76963 -20.7879
ltibia 18.6648
lfoot -3.05091 -9.62492
ltoes 7.35788
4025
root 29.9757 18.1168 4.12045 -0.704104 175.888 1.60504
lowerback 7.33813 0.284066 -1.42665
upperback 2.90641 0.531059 2.06453
thorax -1.143 0.340979 2.88548
lowerneck -13.774 -1.595 -6.00152
upperneck 39.2347 5.13278 -1.08612
head 16.38 2.64936 1.9507
rclavicle -1.15295e-014 3.18055e-015
rhumerus -29.1604 -3.83748 -83.9905
rradius 35.0189
rwrist -12.1182
rhand -22.9357 10.917
rfingers 7.12502
rthumb 3.50517 -19.0339
lclavicle -1.15295e-014 3.18055e-015
lhumerus -33.6621 4.58678 83.4221
lradius 36.3039
lwrist 5.33637
lhand -17.4996 23.3551
lfingers 7.12502
lthumb 8.75328 53.1536
rfemur -16.9732 -4.62959 18.5167
rtibia 66.8157
rfoot -9.63193 -3.77786
rtoes 5.70993
lfemur -10.7878 5.78444 -21.1422
ltibia 19.0759
lfoot -3.48265 -9.81652
ltoes 7.5379
4026
root 29.9826 18.1063 4.06681 -0.662701 176.13 1.48873
lowerback 7.40659 0.240004 -1.6456
upperback 2.80971 0.447604 2.017
thorax -1.2763 0.297134 2.96642
lowerneck -13.8211 -1.63162 -5.86241
upperneck 39.3096 5.09158 -1.16662
head 16.4387 2.64343 1.88933
rclavicle 8.64713e-015 1.70955e-014
rhumerus -29.2491 -3.95178 -84.0528
rradius 35.2142
rwrist -12.0314
rhand -22.5665 10.4688
rfingers 7.12502
rthumb 3.86175 -19.476
lclavicle 8.64713e-015 1.70955e-014
lhumerus -33.6553 4.38226 83.2435
lradius 37.0414
lwrist 5.40207
lhand -17.9064 23.8746
lfingers 7.12502
lthumb 8.3607 53.6891
rfemur -17.5014 -4.66829 18.4817
rtibia 66.1298
rfoot -11.0128 -3.39679
rtoes 5.13386
lfemur -10.8675 5.80174 -21.2863
ltibia 19.4893
lfoot -3.98289 -10.0714
ltoes 5.41314
